Patient4_TMGait_0pt2_01_left_08_EMG.mot
version=1
nRows=30
nColumns=33
inDegrees=no
endheader
time	1LAddLong	2LGlutMax	3LGlutMed	4LIliopsoas	5LSemiMemb	6LBicFemLong	7LRecFem	8LVastMed	9LVastLat	10LGasMed	11LTibAnt	12lTibPost	13LPeroneusLong	14LSol	15LExtDigLong	16LFlexDigLong	17RAddLong	18RGlutMax	19RGlutMed	20RIliopsoas	21RSemiMemb	22RBicFemLong	23RRecFem	24RVastMed	25RVastLat	26RGasMed	27RTibAnt	28RTibPost	29RPeroneusLong	30RSol	31RExtDigLong	32RFlexDigLong
18.227	-0.003967	-0.005341	-0.013275	0.012207	-0.002289	0.050964	-0.027466	-0.003967	-0.050964	-0.44342	-0.025635	-0.011902	0.072937	-0.27557	-0.10315	0.011292	0.022583	-0.007629	0.009003	0.05249	-0.098267	0.037079	0.13245	0.1503	0.031128	-0.058289	-0.039825	-0.067596	-0.27176	-0.40115	-0.003357	-0.008698
18.228	0.013733	-0.010071	0.009155	0.007782	0.016479	-0.030975	0.000458	-0.005188	-0.081177	-0.63339	-0.029602	-0.011902	0.40863	-0.32272	-0.062408	0.001373	-0.000305	0.024109	-0.021973	0.015869	0.068359	0.033112	0.18509	0.15366	0.00946	-0.05127	-0.036469	-0.096741	-0.22293	0.081787	-0.002136	-0.011597
18.229	0.027161	-0.042572	-0.013123	0.009613	0.018921	-0.034485	0.038757	-0.003357	-0.056763	-0.30624	-0.037231	0.002899	0.083008	-0.21225	-0.070496	0.009155	0.010223	0.012817	-0.2655	-0.089722	0.11841	0.028076	0.21866	0.090637	0.020752	-0.048065	-0.052338	-0.029144	0.003815	0.070496	-0.000916	-0.014801
18.23	0.017548	-0.007935	0.039368	-0.001984	0.014648	-0.070953	0.051117	-0.007324	-0.022888	-0.33279	-0.022888	0.001221	0.18402	-0.083618	-0.017242	0.010223	0.038147	0.00885	-0.10788	-0.077667	0.072327	0.012054	0.242	-0.005951	0.010376	-0.035095	-0.028076	0.035248	-0.062714	-0.20065	-0.005188	-0.014801
18.231	0.016327	-0.024872	0.061188	-0.001068	0.007629	-0.050507	0.064392	0.001068	0.011444	-0.35706	-0.00824	0.016022	0.21454	-0.12451	0.06546	-0.002289	0.06424	0.025787	-0.0737	0.013275	0.049133	-0.028534	0.27985	-0.23148	-0.010986	-0.038452	0.022736	-0.10056	0.3392	0.24643	-0.003662	-0.015259
18.232	0.003357	-0.0354	0.052338	0.002136	-0.039673	-0.01709	0.063782	-0.00351	0.02655	0.23285	-0.013123	0.01709	0.04715	-0.020599	0.11322	-0.008392	0.042572	0.062256	0.078888	0.074615	0.061035	-0.084686	0.09491	-0.22949	-0.020905	-0.010223	0.13779	0.17303	0.4805	0.59403	-0.002747	0.000305
18.233	0.011597	-0.014496	0.006561	0.002441	-0.092468	0.043945	0.040131	0.007782	0.00412	0.46402	-0.005341	-0.004883	-0.081787	0.000153	0.058441	-0.007019	0.005646	0.10559	0.033875	0.053558	0.11856	-0.043945	0.01236	-0.18784	0.000153	-0.003815	0.14893	0.14603	0.36789	0.74478	-0.003052	-0.004272
18.234	0.008698	-0.007782	-0.026855	-0.002136	-0.10254	0.10864	0.003967	0.002594	-0.002594	0.056152	-0.021057	-0.000763	-0.10803	-0.093384	-0.009918	0.009918	0.013275	0.058899	0.12512	0.089417	0.10544	0.009613	0.091858	-0.22964	-0.003052	-0.001373	0.15595	0.059357	0.26382	0.89523	-0.001221	0.001984
18.235	0.001678	-0.000153	-0.001068	0.008392	-0.043793	0.1413	-0.043488	0.006104	-0.00061	-0.081024	0.014191	-0.015717	0.0383	-0.059204	-0.034943	0.011139	-0.014648	0.023041	-0.19318	0.097198	-0.3183	0.15335	0.22476	-0.21027	-0.044403	0.007324	-0.072632	0.036926	0.081787	0.55924	-0.00824	0.004578
18.236	0.001984	0.022278	0.008698	0.003204	0.053864	0.15366	-0.04303	-0.001221	0.002899	-0.068207	0.011597	-0.001373	0.4306	-0.020599	-0.072174	0.007477	-0.013123	0.032806	-0.30624	0.1149	-0.30334	0.019226	0.22125	-0.05661	-0.06897	0.013275	-0.21759	0.002289	0.23117	0.023499	-0.007629	0.007477
18.237	0.007172	0.021362	0.028076	0.018158	0.097809	0.20966	-0.016327	0.001678	0.002289	-0.14297	0.002136	0.008087	0.99426	-0.071564	-0.077972	0.007477	-0.031128	0.096741	-0.22736	0.063477	-0.093689	-0.052795	0.033722	0.081177	-0.034637	0.016022	-0.33676	-0.021973	0.19058	-0.3714	-0.010223	0.000763
18.238	0.011139	0.010834	0.019073	0.024719	0.053406	0.22827	-0.001678	-0.000916	0.015411	-0.34454	0.024719	0.016937	0.8345	-0.14679	0.024719	0.006561	-0.04303	0.069122	-0.029602	0.018005	0.093079	-0.096893	-0.14191	0.10056	0.090027	0.015717	-0.25436	-0.03067	0.15762	-0.71274	-0.009918	-0.001678
18.239	0.008545	0.022125	-0.000763	0.010834	-0.032806	0.13718	-0.007477	0.005798	0.012054	-0.28183	0.041046	0.019379	0.17456	-0.18677	0.062866	0.005341	-0.027466	0.075378	0.00885	-0.007629	0.048523	-0.006256	0.048523	-0.017395	0.14099	0.00885	0.26199	0.004578	0.077972	-0.63568	-0.003204	-0.000153
18.24	-0.005798	0.058441	0.007782	0.006256	-0.048218	-0.050201	0.009308	0.003204	0.028992	-0.24445	0.003204	0.017395	-0.62927	-0.11658	-0.037842	-0.000916	-0.011139	-0.002594	-0.08194	-0.03006	0.040131	0.090637	0.18845	-0.031433	0.090637	0.005646	-0.010071	0.003204	0.007477	-0.37521	-0.001221	0.000458
18.241	-0.011749	0.06485	0.000763	0.007477	-0.15823	-0.14221	-0.013275	0.005035	0.074921	-0.16022	0.002594	0.002747	-0.49713	-0.10651	-0.11322	-0.008545	0.000153	0.10971	-0.10346	-0.061035	0.076599	0.090027	0.10422	0.04425	0.034637	0.012054	-0.17151	-0.010223	0.038757	-0.35629	-0.004883	-0.003052
18.242	-0.012512	0.090942	0.006409	0.013733	-0.23636	-0.16632	-0.018463	0.009766	0.12695	-0.060272	0.019531	0.00885	-0.46097	0.051575	-0.085602	0.000763	0.00946	0.12817	-0.091553	-0.056152	0.048218	0.031128	0.04837	0.12222	0.14297	0.02182	-0.14358	-0.014038	0.031281	-0.33112	-0.003052	-0.003357
18.243	-0.012512	0.069122	0.040131	0.007477	-0.18539	-0.12665	-0.024109	0.010681	0.15335	-0.073853	0.014191	-0.001068	-0.37766	0.09201	-0.061188	-0.005035	0.007935	0.08194	-0.002289	-0.017853	-0.05127	0.025635	0.18143	0.096283	0.14267	0.010071	0.072327	-0.020599	-0.058899	-0.23117	-0.004883	-0.005493
18.244	-0.009308	0.050812	0.006256	0.001221	0.05127	-0.15518	-0.002899	0.003357	0.13596	-0.004883	0.00885	0.000305	-0.097961	0.088501	0.013428	-0.004578	0.007019	0.020447	0.074463	-0.022125	-0.034485	0.040894	0.10132	0.003967	0.019684	0.00473	0.18677	-0.015717	-0.12207	-0.2121	-0.002441	-0.005035
18.245	-0.005341	0.060425	-0.036163	0.020142	0.18051	-0.086365	-0.003662	-0.002747	0.012817	0.1944	0.001221	-0.003815	-0.072937	0.002289	0.001678	0.007477	0.000153	0.009155	-0.075378	0.013885	0.022583	0.045471	0.072784	0.015411	-0.048828	-0.000458	0.025635	-0.020294	-0.17792	-0.16296	-0.005798	0.001984
18.246	0.009918	0.076447	-0.055084	0.012207	0.050812	-0.079651	-0.010376	0.007629	-0.11688	0.30121	0.005951	-0.000458	0.052185	0.016479	-0.002136	-0.008545	0.031433	0.025787	-0.088654	-0.00946	0.001373	0.003967	-0.002899	0.029755	-0.053711	0.000916	-0.012512	-0.02182	-0.19409	-0.2298	-0.004272	-0.000458
18.247	0.007782	0.079346	-0.043488	0.007019	0.03006	-0.067596	-0.019684	-0.011902	-0.11398	0.36911	0	-0.003204	0.022888	0.062866	0.010071	-0.000916	0.022125	-0.042114	-0.062714	-0.069275	-0.049591	-0.004272	-0.060272	0.051727	-0.024872	0.006866	-0.005798	-0.019226	-0.19836	-0.19196	0.004578	0.000458
18.248	0.019073	0.090027	0.066833	0.009918	0.043793	-0.07019	-0.001678	-0.005035	-0.13825	0.36835	0.014954	-0.00351	-0.003204	0.056915	0.031128	-0.000458	0.009155	0.003967	-0.028229	-0.045624	-0.10498	0.071259	-0.14084	-0.001068	-0.012512	0.018616	0.012817	-0.021057	-0.21423	-0.23789	-0.002899	-0.000305
18.249	0.026093	0.041962	0.042725	0.006256	0.01709	-0.061493	0.027008	-0.009003	-0.1062	0.10666	0.018616	0.005798	0.074463	0.024719	0.05249	-0.000763	0.003357	0.060883	0.027924	0.00885	-0.069275	0.069275	-0.050354	-0.026093	0.00946	0.002594	0.039825	-0.014343	0.063934	-0.21957	-0.005035	0.003357
18.25	0.019684	0.037079	0.022736	0.017242	-0.020905	-0.053864	0.001678	-0.005646	-0.081635	0.11627	0.001831	-0.008545	-0.12131	0.055389	0.051727	0.007935	-0.014191	-0.007477	-0.041962	0.11566	0.001678	0.026093	-0.004425	0.008087	0.019073	0.010986	0.05661	0.001373	-0.031433	-0.13107	0.001984	-0.004883
18.251	0.02121	0.0383	0.010986	0.003967	0.066528	-0.056152	-0.020599	-0.002594	-0.065308	0.12665	0.027008	-0.010223	-0.32135	0.009155	0.036316	0.011444	-0.006714	-0.015564	-0.11734	0.14511	0.018768	0.00946	0.013275	0.004578	0.064697	-0.035248	0.036774	0.001984	-0.18204	-0.1976	0.001831	-0.003357
18.252	-0.000153	0.041656	-0.007629	0.005493	0.065308	-0.032806	0.001068	-0.000458	-0.055847	-0.065765	0.018921	-0.00473	0.030212	-0.1886	0.038147	0.010681	0.002289	0.042725	-0.082092	0.11231	-0.014954	-0.010223	0.054474	0.002594	0.06012	-0.11002	0.003357	-0.026245	-0.2417	-0.49377	-0.002289	-0.00885
18.253	-0.007935	0.016937	-0.013275	0.002441	0.068207	0.04837	0.003815	-0.001678	-0.07843	-0.28275	-0.022888	0.006104	0.50812	-0.41946	-0.01709	0.005188	0.003662	0.007629	-0.085297	0.055084	-0.040436	0.00061	0.093384	-0.019836	0.033264	-0.08728	-0.011749	-0.49179	-0.16434	-0.15335	-0.000763	-0.012207
18.254	-0.00824	0.061035	-0.016174	0.007172	0.059662	0.14374	-0.005341	0.002136	-0.06134	-0.3302	-0.03418	0.006714	0.22156	-0.30502	-0.016937	0.005035	-0.006409	0.004272	0.2121	-0.032959	-0.075378	-0.012207	0.086517	-0.039673	0.029907	-0.011444	-0.032349	0.099182	-0.17944	-0.095673	-0.002747	-0.004578
18.255	-0.018005	0.057373	0.00473	0.010986	0.041199	0.19669	-0.011139	0.005646	-0.035706	0.51544	-0.017242	0.016327	0.14252	-0.17349	-0.037994	0.021362	-0.02243	-0.018616	0.12711	-0.14954	-0.00412	-0.087891	0.086365	0.021515	-0.001984	0.03479	-0.011139	0.18921	-0.059052	0.054626	-0.00412	-0.004272
18.256	-0.018158	0.020447	0.016327	0.014191	0.029755	0.19775	0.007629	0.00885	-0.015869	0.96481	0.023804	0.011597	0.007019	-0.10941	-0.016937	-0.028076	-0.01236	-0.06485	0.20294	-0.1445	0.13031	-0.097046	0.1062	0.018768	-0.014191	0.024414	-0.058899	0.12024	0.20142	0.1973	-0.00412	-0.006409
